<?xml version="1.0" standalone="no"?>
<!DOCTYPE svg PUBLIC "-//W3C//DTD SVG 20010904//EN"
 "http://www.w3.org/TR/2001/REC-SVG-20010904/DTD/svg10.dtd">
<svg version="1.0" xmlns="http://www.w3.org/2000/svg"
 width="824.000000pt" height="824.000000pt" viewBox="0 0 824.000000 824.000000"
 preserveAspectRatio="xMidYMid meet">
<metadata>
Created by potrace 1.14, written by Peter Selinger 2001-2017
</metadata>
<g transform="translate(0.000000,824.000000) scale(0.100000,-0.100000)"
fill="#000000" stroke="none">
<path d="M273 7857 c-15 -18 -41 -50 -58 -71 -16 -21 -38 -48 -48 -60 -42 -49
-53 -63 -81 -101 -17 -22 -33 -42 -36 -45 -30 -26 -49 -66 -44 -93 2 -17 7
-33 9 -37 2 -3 7 -29 11 -56 3 -27 9 -53 12 -59 3 -5 7 -18 8 -30 2 -18 28
-147 40 -200 3 -11 7 -31 10 -45 9 -48 14 -71 29 -142 3 -13 9 -45 15 -73 6
-27 13 -61 16 -75 6 -29 12 -60 18 -92 3 -13 12 -57 21 -98 23 -104 23 -103
29 -141 3 -19 8 -43 10 -54 9 -34 66 -307 76 -355 4 -25 11 -56 14 -70 5 -22
18 -86 30 -145 3 -11 16 -76 30 -145 14 -69 28 -137 30 -152 3 -15 7 -32 10
-36 3 -5 6 -25 8 -45 1 -21 5 -37 8 -37 3 0 6 -9 7 -21 2 -18 9 -58 29 -149 2
-14 11 -54 18 -90 8 -36 23 -110 35 -165 11 -55 23 -111 26 -125 2 -14 9 -45
15 -70 5 -25 12 -56 15 -70 3 -14 7 -36 10 -50 2 -14 9 -47 15 -75 6 -27 13
-61 15 -75 3 -14 8 -32 11 -40 4 -8 8 -28 9 -45 2 -16 19 -106 39 -200 20 -93
39 -181 42 -195 2 -14 7 -36 9 -50 3 -14 8 -36 10 -50 3 -14 8 -36 11 -50 3
-14 7 -33 7 -42 1 -10 5 -18 9 -18 4 0 5 -7 2 -15 -3 -8 -2 -20 2 -27 4 -7 9
-21 10 -33 3 -25 10 -63 18 -95 4 -14 9 -38 11 -55 2 -16 4 -30 5 -30 2 0 5
-14 13 -55 3 -14 8 -36 11 -50 3 -14 8 -36 11 -50 2 -14 18 -92 35 -175 18
-82 34 -161 36 -175 4 -21 29 -134 39 -180 8 -39 65 -318 69 -342 2 -15 7 -32
10 -37 3 -5 8 -26 11 -47 4 -39 12 -79 15 -79 1 0 3 -11 6 -25 2 -14 9 -47 15
-75 6 -27 13 -61 15 -75 3 -14 14 -68 25 -120 12 -52 23 -106 24 -120 2 -14 4
-25 5 -25 1 0 3 -7 5 -15 1 -8 10 -51 20 -95 9 -44 19 -91 21 -105 2 -14 7
-36 10 -50 3 -14 8 -34 10 -45 2 -11 6 -31 10 -45 3 -14 7 -38 10 -55 12 -72
25 -107 39 -102 7 3 16 3 19 -1 4 -3 14 -7 24 -7 9 -1 33 -5 52 -9 151 -28
239 -45 261 -50 14 -3 39 -7 55 -9 17 -2 35 -7 42 -11 7 -4 12 -5 12 -3 0 2
19 0 43 -4 45 -10 189 -38 222 -44 11 -2 45 -8 75 -14 30 -6 91 -17 135 -25
44 -8 105 -20 135 -26 30 -6 64 -13 75 -15 58 -10 210 -39 255 -49 14 -2 41
-7 60 -10 19 -3 82 -15 140 -27 58 -11 121 -23 140 -26 19 -3 40 -9 46 -14 6
-5 13 -6 16 -3 3 3 39 -2 79 -11 41 -8 90 -18 109 -21 19 -3 46 -7 60 -9 29
-5 65 -12 88 -19 9 -3 37 -8 62 -11 24 -4 47 -8 50 -10 3 -2 26 -6 50 -10 25
-3 53 -8 63 -11 11 -4 29 -7 40 -9 42 -6 103 -17 169 -31 37 -7 80 -16 95 -19
16 -3 39 -7 53 -10 14 -3 39 -7 55 -10 62 -10 82 -14 135 -25 30 -6 73 -14 95
-16 21 -3 43 -8 47 -10 8 -5 22 -8 90 -18 21 -3 58 -10 83 -16 25 -6 62 -13
83 -16 20 -3 45 -8 55 -10 10 -3 32 -7 50 -10 18 -2 42 -6 55 -9 12 -3 30 -7
41 -9 10 -2 34 -7 52 -10 19 -3 59 -10 89 -16 30 -6 66 -13 80 -16 49 -9 227
-44 250 -49 3 0 28 -5 55 -9 76 -13 86 -15 140 -26 28 -6 65 -13 84 -16 18 -3
43 -8 55 -11 11 -2 66 -13 121 -23 174 -33 245 -47 290 -55 45 -9 77 -15 110
-20 27 -4 80 -15 145 -30 14 -3 41 -8 60 -11 19 -2 80 -14 135 -25 55 -11 118
-22 140 -25 22 -3 45 -9 51 -15 6 -5 13 -7 16 -4 2 2 49 -4 104 -15 54 -10
113 -21 129 -24 17 -2 30 -5 30 -6 0 -1 12 -4 27 -6 23 -4 29 0 34 23 4 15 10
30 13 33 6 5 30 65 34 85 1 6 4 12 7 15 3 3 14 25 24 50 10 25 24 59 31 75 7
17 36 86 65 155 29 69 58 139 65 155 53 122 85 200 85 212 0 7 5 13 10 13 6 0
10 7 10 15 0 8 4 23 9 33 9 17 33 72 36 82 1 3 7 17 13 33 30 70 35 83 38 96
1 8 9 18 16 22 7 5 10 9 6 9 -6 0 24 79 73 187 10 23 19 44 19 46 0 3 10 26
22 53 12 27 23 51 23 54 1 3 11 26 23 52 12 26 22 53 22 60 0 8 4 18 8 23 5 6
35 73 67 150 32 77 66 158 75 180 10 22 29 67 43 100 48 117 188 450 202 480
26 59 196 467 198 477 1 6 -5 11 -13 13 -27 4 -188 19 -320 29 -30 3 -77 7
-105 10 -92 10 -160 17 -220 22 -33 2 -82 7 -110 9 -27 3 -75 7 -105 10 -30 3
-77 8 -105 11 -44 4 -75 7 -150 13 -16 1 -11 10 30 47 28 26 118 111 200 189
83 79 172 163 199 188 l48 45 -43 23 c-24 13 -53 29 -64 36 -11 6 -33 19 -50
27 -16 8 -64 34 -105 57 -41 23 -97 53 -125 68 -27 14 -51 29 -53 33 -2 5 -10
8 -17 8 -8 0 -21 8 -31 18 -10 9 -18 16 -18 14 -2 -6 -40 11 -56 23 -8 7 -58
34 -110 61 -52 27 -97 51 -100 54 -3 3 -18 12 -35 21 -90 49 -175 95 -462 253
-116 64 -214 116 -218 116 -3 0 -24 12 -48 27 -42 27 -146 85 -222 124 -22 11
-53 28 -70 37 -16 10 -91 51 -165 91 -74 40 -152 84 -173 97 -20 14 -37 21
-37 18 0 -4 -8 -1 -17 7 -10 8 -36 24 -58 36 -22 12 -69 38 -105 58 -36 19
-81 43 -100 53 -19 9 -37 19 -40 22 -3 3 -16 11 -30 17 -14 7 -56 30 -95 51
-38 21 -106 58 -150 82 -44 23 -84 46 -90 50 -5 4 -39 23 -75 42 -187 101
-225 123 -228 130 -2 4 -11 8 -21 8 -9 0 -21 4 -26 9 -10 10 -138 81 -185 104
-14 6 -27 14 -30 17 -3 3 -23 14 -45 25 -22 11 -60 32 -85 46 -25 14 -76 43
-115 64 -189 103 -276 151 -335 183 -36 19 -105 58 -155 85 -49 28 -117 65
-150 82 -33 18 -80 43 -105 57 -25 14 -70 38 -100 54 -30 16 -57 32 -60 35 -3
4 -15 9 -27 13 -13 4 -23 12 -23 17 0 5 -9 9 -19 9 -11 0 -26 6 -33 13 -7 6
-31 21 -53 33 -22 12 -87 47 -145 79 -58 32 -132 72 -165 90 -81 44 -151 82
-205 114 -25 14 -51 26 -58 27 -8 2 -21 9 -30 17 -10 8 -57 36 -107 62 -49 26
-103 56 -120 65 -16 10 -61 34 -100 55 -38 21 -97 54 -130 72 -33 19 -71 39
-85 46 -14 6 -27 14 -30 17 -3 3 -27 17 -55 31 -27 14 -77 41 -110 59 -33 18
-89 48 -125 68 -36 19 -99 54 -140 77 -41 23 -109 60 -150 82 -41 22 -93 51
-115 63 -22 13 -69 39 -105 58 -36 19 -81 44 -100 55 -19 11 -73 40 -120 65
-47 24 -89 48 -95 52 -5 4 -39 23 -75 42 -36 20 -86 47 -112 62 l-46 26 -29
-33z"/>
</g>
</svg>
