<svg width="156" height="156" viewBox="0 0 156 156" fill="none" xmlns="http://www.w3.org/2000/svg">
<path d="M61.6817 45.1921C61.9508 42.7904 63.1379 40.587 64.9932 39.045C66.8485 37.5031 69.2277 36.7428 71.6304 36.9239C73.1294 36.7287 74.6531 36.8863 76.0809 37.3842C77.5087 37.882 78.8012 38.7066 79.8562 39.7924C80.9112 40.8783 81.6996 42.1956 82.159 43.6401C82.6184 45.0845 82.7361 46.6164 82.5028 48.1145V108.13C82.5028 116.184 78.8076 120.176 71.2751 120.176C68.7955 120.194 66.3962 119.295 64.535 117.652C62.6739 116.008 61.481 113.735 61.1843 111.266C58.248 114.477 54.6455 117.002 50.6306 118.665C46.6157 120.327 42.2861 121.086 37.947 120.888C14.7098 120.888 0 102 0 78.1221C0 54.2443 14.2124 35.3558 37.947 35.3558C48.5352 35.3558 57.7022 38.3495 61.6817 45.1921ZM22.0292 78.1221C21.8697 80.7527 22.2485 83.3882 23.1424 85.8664C24.0362 88.3446 25.4262 90.6131 27.2268 92.5324C29.0274 94.4516 31.2005 95.981 33.6124 97.0264C36.0243 98.0718 38.624 98.6111 41.2514 98.6111C43.8789 98.6111 46.4785 98.0718 48.8904 97.0264C51.3023 95.981 53.4754 94.4516 55.276 92.5324C57.0766 90.6131 58.4666 88.3446 59.3605 85.8664C60.2544 83.3882 60.6332 80.7527 60.4737 78.1221C60.6332 75.4916 60.2544 72.8561 59.3605 70.3779C58.4666 67.8997 57.0766 65.6312 55.276 63.7119C53.4754 61.7927 51.3023 60.2633 48.8904 59.2179C46.4785 58.1725 43.8789 57.6332 41.2514 57.6332C38.624 57.6332 36.0243 58.1725 33.6124 59.2179C31.2005 60.2633 29.0274 61.7927 27.2268 63.7119C25.4262 65.6312 24.0362 67.8997 23.1424 70.3779C22.2485 72.8561 21.8697 75.4916 22.0292 78.1221Z" fill="#333333"/>
<path d="M113.77 110.625C113.884 111.943 113.723 113.272 113.298 114.525C112.873 115.778 112.193 116.929 111.301 117.905C110.409 118.88 109.325 119.659 108.116 120.192C106.908 120.725 105.603 121 104.283 121C102.964 121 101.658 120.725 100.45 120.192C99.242 119.659 98.1575 118.88 97.2654 117.905C96.3734 116.929 95.6933 115.778 95.2683 114.525C94.8433 113.272 94.6826 111.943 94.7965 110.625C94.6826 109.306 94.8433 107.978 95.2683 106.724C95.6933 105.471 96.3734 104.32 97.2654 103.345C98.1575 102.369 99.242 101.59 100.45 101.057C101.658 100.524 102.964 100.249 104.283 100.249C105.603 100.249 106.908 100.524 108.116 101.057C109.325 101.59 110.409 102.369 111.301 103.345C112.193 104.32 112.873 105.471 113.298 106.724C113.723 107.978 113.884 109.306 113.77 110.625Z" fill="#333333"/>
<path d="M94.8676 79.619C94.4152 73.9498 95.114 68.2474 96.9217 62.8569C98.7295 57.4663 101.609 52.4996 105.385 48.257C109.734 43.7035 114.966 40.0901 120.758 37.6386C126.55 35.1871 132.781 33.9495 139.068 34.0016H151.575C153.707 34.0016 155.554 34.7856 155.554 37.0665C156.618 46.8538 155.773 56.7551 153.067 66.2189C150.635 73.276 146.31 79.5243 140.568 84.2773C134.827 89.0303 127.89 92.1043 120.521 93.1616C113.204 93.9247 105.844 94.1867 98.4917 93.9457C96.0046 93.9457 95.0097 92.3776 94.9386 90.0967C94.8676 87.8158 94.8676 83.6105 94.8676 79.619ZM101.974 82.0424L104.603 79.5477L117.892 66.5752C119.597 64.8646 121.587 63.6529 123.577 65.7199C125.566 67.787 124.216 69.7115 122.511 71.3508C114.765 78.9775 117.394 76.1977 109.648 83.8243L106.593 87.0318C129.901 89.8116 151.788 74.0593 149.23 43.7665C149.159 42.9183 148.805 42.1189 148.224 41.4979C147.644 40.8769 146.871 40.4708 146.032 40.3452C120.379 36.4963 96.6441 58.3784 102.116 82.1137L101.974 82.0424Z" fill="#333333"/>
</svg>
