<svg width="159" height="41" viewBox="0 0 159 41" fill="none" xmlns="http://www.w3.org/2000/svg">
<path d="M29.1785 5.27444C29.3054 4.14263 29.8649 3.10422 30.7396 2.37755C31.6142 1.65089 32.7358 1.29258 33.8685 1.37795C34.5752 1.28595 35.2935 1.36021 35.9666 1.59484C36.6396 1.82947 37.249 2.21804 37.7463 2.72976C38.2437 3.24148 38.6153 3.86229 38.8319 4.54302C39.0484 5.22375 39.1039 5.94568 38.994 6.65165V34.9348C38.994 38.7305 37.252 40.6115 33.701 40.6115C32.5321 40.62 31.401 40.1965 30.5236 39.4221C29.6462 38.6477 29.0839 37.5764 28.944 36.4127C27.5488 37.9392 25.8341 39.1373 23.9229 39.9212C22.0116 40.7052 19.9511 41.0557 17.889 40.9474C6.9345 40.9474 0 32.046 0 20.7932C0 9.54042 6.7 0.638962 17.889 0.638962C20.0088 0.383082 22.1586 0.67462 24.1344 1.4859C26.1102 2.29717 27.8465 3.60128 29.1785 5.27444ZM10.4855 20.7932C10.4103 22.0329 10.5889 23.2749 11.0103 24.4428C11.4316 25.6107 12.0869 26.6798 12.9358 27.5842C13.7846 28.4887 14.809 29.2094 15.9461 29.7021C17.0831 30.1948 18.3086 30.4489 19.5472 30.4489C20.7859 30.4489 22.0114 30.1948 23.1484 29.7021C24.2854 29.2094 25.3099 28.4887 26.1587 27.5842C27.0076 26.6798 27.6628 25.6107 28.0842 24.4428C28.5056 23.2749 28.6842 22.0329 28.609 20.7932C28.6628 19.553 28.4694 18.3144 28.0402 17.15C27.611 15.9855 26.9545 14.9186 26.1092 14.0116C25.2639 13.1046 24.2467 12.3757 23.1171 11.8675C21.9875 11.3593 20.7682 11.0821 19.5305 11.052C18.2942 11.0819 17.0764 11.3594 15.9486 11.8679C14.8208 12.3765 13.8057 13.106 12.963 14.0135C12.1204 14.921 11.4671 15.9883 11.0417 17.1526C10.6162 18.3168 10.4271 19.5546 10.4855 20.7932Z" fill="#333333"/>
<path d="M64.2195 40.9474C58.8886 40.9474 53.7761 38.824 50.0066 35.0444C46.2372 31.2647 44.1195 26.1384 44.1195 20.7932C44.1195 15.448 46.2372 10.3217 50.0066 6.54201C53.7761 2.76235 58.8886 0.638958 64.2195 0.638958C68.4417 0.438726 72.6148 1.61741 76.112 3.998C77.1394 4.59271 77.9909 5.4503 78.5795 6.48309C79.168 7.51588 79.4726 8.68684 79.462 9.87632C79.4457 10.5237 79.2982 11.1609 79.0284 11.7492C78.7586 12.3376 78.3721 12.8646 77.8926 13.2983C77.413 13.7321 76.8504 14.0633 76.239 14.2719C75.6277 14.4806 74.9803 14.5622 74.3365 14.5118C72.759 14.3894 71.2756 13.7111 70.149 12.5971C68.5752 11.5093 66.7001 10.9452 64.789 10.9848C63.474 10.9049 62.1569 11.1006 60.9216 11.5595C59.6863 12.0184 58.5599 12.7304 57.6143 13.6501C56.6687 14.5698 55.9247 15.677 55.4296 16.9011C54.9345 18.1252 54.6993 19.4393 54.739 20.7596C54.7337 22.0704 54.9923 23.3688 55.4993 24.5771C56.0064 25.7853 56.7514 26.8785 57.6898 27.7912C58.6281 28.7038 59.7406 29.4172 60.9604 29.8886C62.1803 30.36 63.4824 30.5796 64.789 30.5344C66.0142 30.5845 67.2371 30.3906 68.3871 29.964C69.5371 29.5373 70.5914 28.8864 71.489 28.0487C72.0298 27.4385 72.6889 26.9451 73.4261 26.5986C74.1634 26.2521 74.9632 26.0597 75.777 26.0333C76.4181 26.0633 77.0469 26.2205 77.6271 26.4957C78.2073 26.7708 78.7273 27.1585 79.1572 27.6364C79.5871 28.1143 79.9182 28.6728 80.1315 29.2798C80.3448 29.8868 80.4361 30.5301 80.4 31.1726C80.299 32.8433 79.5542 34.4092 78.323 35.5394C76.4646 37.3581 74.2546 38.7761 71.8291 39.7062C69.4036 40.6363 66.8139 41.0587 64.2195 40.9474Z" fill="#333333"/>
<path d="M114.536 5.27443C114.663 4.14262 115.223 3.10421 116.098 2.37755C116.972 1.65088 118.094 1.29257 119.226 1.37795C119.933 1.28594 120.651 1.3602 121.325 1.59483C121.998 1.82947 122.607 2.21804 123.104 2.72976C123.602 3.24148 123.973 3.86229 124.19 4.54301C124.406 5.22374 124.462 5.94568 124.352 6.65164V34.9348C124.352 38.7305 122.61 40.6115 119.059 40.6115C117.89 40.62 116.759 40.1965 115.882 39.4221C115.004 38.6476 114.442 37.5764 114.302 36.4127C112.918 37.9257 111.219 39.1159 109.327 39.8994C107.434 40.6829 105.393 41.0406 103.347 40.9474C92.393 40.9474 85.4585 32.046 85.4585 20.7932C85.4585 9.54041 92.1585 0.638956 103.347 0.638956C108.339 0.638956 112.66 2.04976 114.536 5.27443ZM95.8435 20.7932C95.7683 22.0329 95.9468 23.2749 96.3682 24.4428C96.7896 25.6107 97.4449 26.6798 98.2937 27.5842C99.1426 28.4887 100.167 29.2094 101.304 29.7021C102.441 30.1947 103.667 30.4489 104.905 30.4489C106.144 30.4489 107.369 30.1947 108.506 29.7021C109.643 29.2094 110.668 28.4887 111.517 27.5842C112.366 26.6798 113.021 25.6107 113.442 24.4428C113.864 23.2749 114.042 22.0329 113.967 20.7932C114.042 19.5535 113.864 18.3115 113.442 17.1436C113.021 15.9757 112.366 14.9066 111.517 14.0022C110.668 13.0977 109.643 12.3769 108.506 11.8843C107.369 11.3916 106.144 11.1375 104.905 11.1375C103.667 11.1375 102.441 11.3916 101.304 11.8843C100.167 12.3769 99.1426 13.0977 98.2937 14.0022C97.4449 14.9066 96.7896 15.9757 96.3682 17.1436C95.9468 18.3115 95.7683 19.5535 95.8435 20.7932Z" fill="#333333"/>
<path d="M139.092 36.1104C139.146 36.7319 139.07 37.3578 138.87 37.9485C138.669 38.5391 138.349 39.0814 137.928 39.5412C137.508 40.001 136.996 40.3681 136.427 40.6192C135.857 40.8703 135.242 41 134.62 41C133.998 41 133.382 40.8703 132.813 40.6192C132.243 40.3681 131.732 40.001 131.311 39.5412C130.891 39.0814 130.57 38.5391 130.37 37.9485C130.169 37.3578 130.094 36.7319 130.147 36.1104C130.094 35.4889 130.169 34.863 130.37 34.2724C130.57 33.6818 130.891 33.1394 131.311 32.6796C131.732 32.2199 132.243 31.8528 132.813 31.6016C133.382 31.3505 133.998 31.2208 134.62 31.2208C135.242 31.2208 135.857 31.3505 136.427 31.6016C136.996 31.8528 137.508 32.2199 137.928 32.6796C138.349 33.1394 138.669 33.6818 138.87 34.2724C139.07 34.863 139.146 35.4889 139.092 36.1104Z" fill="#333333"/>
<path d="M130.181 21.4986C129.968 18.8269 130.297 16.1396 131.149 13.5992C132.002 11.0588 133.359 8.71819 135.139 6.71882C137.189 4.57293 139.656 2.87003 142.386 1.71475C145.117 0.55946 148.054 -0.0238162 151.018 0.000744617H156.914C157.919 0.000744617 158.79 0.37024 158.79 1.44513C159.291 6.05753 158.893 10.7237 157.617 15.1836C156.471 18.5094 154.432 21.454 151.725 23.6939C149.019 25.9338 145.749 27.3825 142.274 27.8808C138.825 28.2404 135.355 28.3638 131.889 28.2503C130.717 28.2503 130.248 27.5113 130.214 26.4364C130.181 25.3615 130.181 23.3797 130.181 21.4986ZM133.531 22.6407L134.77 21.465L141.035 15.3516C141.839 14.5454 142.777 13.9743 143.715 14.9485C144.653 15.9226 144.016 16.8295 143.212 17.6021C139.561 21.1963 140.8 19.8863 137.149 23.4804L135.708 24.992C146.696 26.302 157.014 18.8785 155.808 4.60262C155.775 4.20288 155.608 3.82615 155.334 3.5335C155.061 3.24085 154.697 3.04944 154.301 2.99029C142.207 1.17641 131.018 11.4887 133.598 22.6743L133.531 22.6407Z" fill="#333333"/>
</svg>
