<?xml version="1.0" standalone="no"?>
<!DOCTYPE svg PUBLIC "-//W3C//DTD SVG 20010904//EN"
 "http://www.w3.org/TR/2001/REC-SVG-20010904/DTD/svg10.dtd">
<svg version="1.0" xmlns="http://www.w3.org/2000/svg"
 width="700.000000pt" height="700.000000pt" viewBox="0 0 700.000000 700.000000"
 preserveAspectRatio="xMidYMid meet">
<metadata>
Created by potrace 1.14, written by Peter Selinger 2001-2017
</metadata>
<g transform="translate(0.000000,700.000000) scale(0.100000,-0.100000)"
fill="#000000" stroke="none">
<path d="M6090 5469 c-499 -33 -971 -246 -1315 -593 -109 -110 -128 -133 -212
-259 -140 -211 -256 -510 -287 -737 -4 -25 -10 -67 -14 -95 -11 -81 -4 -844 9
-891 13 -49 49 -91 87 -101 56 -16 689 -8 882 11 19 2 69 7 110 10 41 4 109
14 150 23 41 8 82 16 91 18 75 15 301 100 386 146 297 160 525 365 696 629
112 173 181 334 232 540 37 153 42 180 70 390 16 123 22 255 20 455 -5 352
-15 404 -90 439 -37 17 -68 19 -380 20 -187 1 -383 -2 -435 -5z m435 -274 c58
-10 105 -35 137 -76 24 -30 30 -48 35 -115 35 -430 -55 -851 -250 -1164 -257
-411 -664 -667 -1188 -745 -53 -8 -379 -14 -431 -7 -21 2 -38 7 -38 11 0 7
300 306 504 502 264 253 295 292 296 360 0 31 -34 84 -72 112 -55 41 -145 23
-209 -42 -25 -25 -629 -614 -677 -660 -24 -23 -47 -39 -52 -36 -4 2 -11 31
-15 62 -4 32 -9 67 -11 78 -5 28 -6 265 0 295 2 14 7 45 10 70 3 25 10 60 15
78 5 17 8 32 6 32 -11 0 81 241 124 323 181 352 504 641 891 800 144 59 342
110 475 123 33 3 62 8 64 10 6 5 342 -4 386 -11z"/>
<path d="M1698 5415 c-2 -1 -55 -5 -118 -9 -117 -6 -146 -9 -197 -20 -15 -4
-39 -8 -53 -11 -70 -13 -93 -19 -190 -52 -341 -114 -655 -368 -842 -682 -36
-59 -121 -228 -135 -266 -32 -86 -55 -152 -59 -165 -2 -8 -15 -58 -29 -110
-52 -192 -69 -343 -70 -595 0 -222 8 -308 41 -480 9 -44 18 -89 20 -100 8 -44
54 -185 87 -270 95 -243 222 -440 396 -615 238 -238 512 -377 878 -445 51 -9
186 -18 304 -19 358 -5 695 125 948 364 35 34 65 59 67 58 2 -2 6 -19 9 -38
15 -89 86 -197 169 -260 85 -64 170 -90 290 -89 162 3 267 39 351 124 63 62
100 137 121 240 14 69 16 263 16 1570 0 1350 -1 1453 -17 1500 -52 148 -185
266 -332 293 -63 11 -221 6 -277 -9 -143 -39 -248 -144 -296 -297 l-17 -53
-27 41 c-93 140 -297 271 -516 329 -133 35 -218 49 -355 56 -55 4 -114 8 -132
9 -18 2 -33 3 -35 1z m267 -1010 c199 -27 378 -120 518 -269 120 -128 205
-308 224 -476 8 -73 8 -250 0 -325 -19 -180 -110 -367 -242 -501 -460 -464
-1241 -274 -1438 352 -31 97 -38 163 -38 327 0 142 4 170 33 272 118 413 520
677 943 620z"/>
<path d="M4576 2489 c-58 -14 -146 -64 -194 -111 -87 -84 -124 -178 -128 -321
-3 -162 31 -261 120 -353 168 -171 419 -178 598 -16 40 36 101 136 119 194 15
46 19 202 7 266 -23 129 -107 245 -223 305 -80 43 -206 58 -299 36z"/>
</g>
</svg>
